<?xml version="1.0" encoding="UTF-8"?>
<svg id="b" data-name="Слой 2" xmlns="http://www.w3.org/2000/svg" viewBox="0 0 63.85 64">
  <g id="c" data-name="Слой 1">
    <g id="d" data-name="5">
      <path d="M30.8.04c17.71-1.11,26.55,21.01,13.44,32.67l-12.26,11.14-.83-.52c-5.57-6.18-14.72-11.01-17.1-19.41C10.77,12.38,18.86.79,30.8.04ZM26.21,24.3c7.99,8,19.35-5.04,10.69-11.88-7.88-6.22-17.59,4.97-10.69,11.88Z" fill="#fff"/>
      <path d="M39.43,53.38l11.43.03c.41-.08.78-1.13,1.1-1.55,4.23-5.55,13.39-1.27,11.68,5.77-1.48,6.11-9.86,6.74-12.55,1.17l-11.59-.06c-1.07,2.17-2.63,4.05-5,4.82-4.03,1.32-7.56-.41-9.68-3.9-.21-.34-.16-.9-.61-.95l-11.35.03c-1.87,3.25-5.5,4.95-9.09,3.28-8.07-3.75-1.83-16.45,6.29-11.77,1.3.75,2.04,1.89,2.8,3.13l11.48.03c.93-2.14,2.35-3.93,4.58-4.81,4.33-1.71,8.94.44,10.51,4.78ZM31.1,53.44c-2.77.57-2.28,5.51,1.01,5.24,3.59-.29,3.21-6.11-1.01-5.24Z" fill="#fff"/>
    </g>
  </g>
</svg>