<?xml version="1.0" encoding="UTF-8"?>
<svg id="b" data-name="Слой 2" xmlns="http://www.w3.org/2000/svg" viewBox="0 0 61.02 64">
  <g id="c" data-name="Слой 1">
    <g id="d" data-name="1">
      <path d="M23.3,30.24l26.89,14.08c.11.42-1.67,4.44-1.99,5.18-1.28,2.9-5.71,11.86-7.96,13.56-2.79,2.11-6.64.22-9.46-1.07s-2.32-1.15-.44-3.01c1.26-1.25,5.19-5.59,5.4-7.17.27-1.98-1.65-3.24-3.28-2.18-.7.46-1.1,1.49-1.61,2.16-1.93,2.55-4.11,5.1-6.94,6.67-1.91-1.1-3.93-2.25-5.72-3.54-.61-.44-2.31-1.3-1.2-2.06.5-.34,1.88-.73,2.62-1.15,1.6-.91,4.57-2.87,2.61-4.91-1.64-1.7-3.32.34-4.65,1.14-1.86,1.1-3.98,1.47-6.08,1.87-.54-.07-4.93-4.14-5.52-4.82-1.16-1.35-1.9-2.53-1.22-4.37,1.06-2.87,4.81-2.72,7.4-3.6,4.16-1.42,7.93-3.81,11.15-6.78Z" fill="#fff"/>
      <path d="M39.34,19.5L47.66,3.39c4.38-6.76,14.8-2.6,13.18,5.33-.24,1.18-.77,2.06-1.29,3.11-2.14,4.37-4.6,9.04-6.97,13.3-.22.39-.6.7-.79,1.11-.05.24,1.02,2.03,1.2,2.51,1.38,3.68.6,7.54-1.06,10.97l-1.01-.1c-6.97-3.83-14.14-7.3-21.15-11.06-.64-.34-2.9-1.35-2.8-2.01.03-.22,2.23-2.77,2.57-3.11,2.62-2.55,6.14-3.93,9.8-3.95Z" fill="#fff"/>
      <path d="M9.41,23.56c-2.94-2.86,1.39-7.42,4.42-4.5s-1.46,7.38-4.42,4.5Z" fill="#fff"/>
      <path d="M3.02,27.76c3.88-.11,4.37,5.85.45,6.23-4.39.42-4.68-6.1-.45-6.23Z" fill="#fff"/>
    </g>
  </g>
</svg>