<?xml version="1.0" encoding="UTF-8"?>
<svg id="b" data-name="Слой 2" xmlns="http://www.w3.org/2000/svg" viewBox="0 0 63.94 64">
  <g id="c" data-name="Слой 1">
    <g id="d" data-name="4">
      <path d="M.12,46.25c.33-3.31,2.64-6.25,5.46-7.83,2.04-4.03,3.42-8.86,5.56-12.8,1.27-2.35,3.47-3.85,6.11-4.25h9.69s1.7,5.25,1.7,5.25h-10.65c-.71,0-1.72.81-2.08,1.41l-3.96,9.34h25.34c3.08,2.2,7.37,5.56,11.34,5.25,2.2-.17,4.47-1.7,6.37-2.73,1.87,1.2,3.33,4.09,3.53,6.29.35,3.88-.23,8.28-.03,12.22-.34,2.72-3,5.27-5.7,5.59h-1.74c-2.11-.44-4.06-1.65-5.05-3.62-.16-.31-.68-1.69-.68-1.94v-2.44H13.44c.19,2.78-.77,5.6-3.25,7.05-.83.49-1.68.71-2.6.95h-1.74c-2.98-.59-5.16-2.74-5.73-5.75.28-3.84-.38-8.23,0-12ZM10.05,45.4c-2.63.54-2.68,4.94.46,5.23,1.37.12,4.78.16,6.1-.02,2.76-.38,2.84-4.97-.23-5.24-1.18-.11-5.29-.18-6.33.03ZM41.93,45.4c-2.63.54-2.68,4.94.46,5.23,1.37.12,4.78.16,6.1-.02,2.76-.38,2.84-4.97-.23-5.24-1.18-.11-5.29-.18-6.33.03Z" fill="#fff"/>
      <path d="M48.43,0l13.85,4.78c.85.29,1.48.85,1.59,1.78-.32,5.97.97,12.28-1.47,17.9-2.17,4.99-7.73,9.93-12.59,12.23-1.63.77-1.83.85-3.48.1-4.96-2.25-10.67-7.27-12.86-12.34-2.44-5.63-1.16-11.93-1.47-17.9.11-.93.74-1.49,1.59-1.78L47.44,0h1ZM47.05,18.73l-.36-.04c-1-.74-2.35-2.45-3.58-2.66-2.6-.44-4.17,2.6-2.34,4.59.65.7,4.49,4,5.22,4.38,1.09.56,2.1.4,3.05-.32l7.87-10.1c1.31-2.7-1.83-5.11-4.12-3.27l-5.75,7.41Z" fill="#fff"/>
    </g>
  </g>
</svg>