<?xml version="1.0" encoding="UTF-8"?>
<svg id="b" data-name="Слой 2" xmlns="http://www.w3.org/2000/svg" viewBox="0 0 63.98 64">
  <g id="c" data-name="Слой 1">
    <g id="d" data-name="3">
      <path d="M.02,40.77c.1-.81.58-1.82,1.12-2.44,9.4-9.25,18.56-18.81,28.09-27.88,3.41-.48,6.86-.17,10.28-.03-.14.67-.16,1.37-.12,2.06.06,1.18.68,3.27.62,4.24-.02.32-.46.91-.59,1.28-1.68,4.73,3.77,8.89,7.89,6.01,2.37-1.65,3-5.09,1.21-7.41-.29-.38-1.06-.9-1.22-1.28-.17-.41-.36-2.06-.41-2.59-.03-.28-.13-1.69,0-1.81,1.65.48,4.96-.08,5.63,1.93.59,1.75.81,5.86.99,7.88.36,3.89.82,8.76.5,12.61-.05.55-.18,1.29-.5,1.75l-28.13,28.1c-1.72,1.19-3.74,1.07-5.37-.24L1.08,44.02c-.5-.62-.98-1.59-1.06-2.37-.02-.23-.03-.65,0-.87ZM34.76,37.89l3.36-1.96c.19-.65-1.96-3.72-2.61-4.23l2.12-2.12-2.31-2.31-2.37,2.22c-4.11-3.18-10.26-.78-9.67,4.82.25,2.38,2.49,5.25,2.48,7.26,0,1.42-1.32,2.18-2.62,1.74-2.26-.75-3.99-4.04-4.69-6.18l-3.45,2.08c.59,1.87,1.67,3.57,3,5l-2.24,2.36,2.31,2.31,2.4-2.35c.89.33,1.59.85,2.57,1.14,4.09,1.22,8.25-1.71,7.83-6.08-.22-2.31-2.71-5.92-2.47-7.75.14-1.1,1.13-1.51,2.15-1.29,1.76.36,3.78,3.7,4.22,5.34Z" fill="#fff"/>
      <path d="M53.75.04c5.41.5,9.41,5.11,10.11,10.32.65,4.89-1.38,14.76-4.21,18.87-.8,1.17-2.15,1.52-3.15.35-1.19-1.39.43-3.22,1.03-4.6,1.91-4.47,3.96-12.89,1.54-17.33-2.78-5.1-10.06-5.03-12.99-.11-1.19,1.99-1.17,3.66-.93,5.91.2,1.89,1.05,4.43,1.1,6.16.06,2.28-3.11,2.97-3.83.32-.76-2.82-1.54-8.08-.98-10.9C42.36,4.42,46.69.52,51.38.04c.61-.06,1.76-.06,2.37,0Z" fill="#fff"/>
    </g>
  </g>
</svg>