<?xml version="1.0" encoding="UTF-8"?>
<svg id="b" data-name="Слой 2" xmlns="http://www.w3.org/2000/svg" viewBox="0 0 58.89 64">
  <g id="c" data-name="Слой 1">
    <g id="d" data-name="2">
      <path d="M47.27,53.84c-1.55-4.8-5.43-9.02-10-11.1-8.81-4.02-19.54-.67-24.26,7.79-.28.5-1.46,2.8-1.25,3.19,3.43,2.44,3,7.12-.96,8.74-2.01.83-6.79,2.05-8.68.92-3.4-2.04-1.93-10.34-1.02-13.55,2.3-8.11,10.04-13.57,17.72-16.1.51-.17,1.94-.67,2.38-.68s1.28.73,1.76.99c4.17,2.22,8.37,2.24,12.56.05.4-.21,1.25-.91,1.52-.99.51-.16,2.59.59,3.22.81,8.15,2.79,15.94,8.47,17.9,17.3.82,3.71,2.14,12.83-3.74,12.77-1.51-.01-6-1.09-7.27-1.88-3.03-1.87-3.05-6.62.13-8.28Z" fill="#fff"/>
      <path d="M27.73.08c14.56-1.4,22.42,16.21,13.25,26.87s-25.27,4.6-26.79-8.81C13.24,9.75,19.01.92,27.73.08Z" fill="#fff"/>
      <path d="M38.84,48.73l-6.44,6.48c-1.56-.94-3.24-1.02-4.96-.49-.36.11-.69.5-1.06.32l-6.37-6.31c2.3-1.66,4.95-3.06,7.84-3.31,4.12-.36,7.73.87,10.99,3.31Z" fill="#fff"/>
      <path d="M33.99,63.29c1.22-1.71,1.32-3.29.76-5.27-.09-.32-.47-.61-.28-.97l6.37-6.25c2.53,3.13,3.52,7.11,3.05,11.1-.29.41-9.5,1.67-9.91,1.38Z" fill="#fff"/>
      <path d="M24.86,63.29c-3.34-.1-6.69-.51-9.95-1.27-.35-4.01.48-7.97,3.11-11.07l6.36,6.1c.17.39-.25.78-.36,1.17-.52,1.86-.28,3.5.84,5.07Z" fill="#fff"/>
      <path d="M28.83,57.22c4.1-.7,4.57,5.38.78,5.64-3.51.25-4.07-5.08-.78-5.64Z" fill="#fff"/>
    </g>
  </g>
</svg>