<?xml version="1.0" encoding="UTF-8"?>
<svg id="b" data-name="Слой 2" xmlns="http://www.w3.org/2000/svg" viewBox="0 0 60 42.89">
  <g id="c" data-name="Слой 1">
    <g id="d" data-name="5">
      <path d="M30.11,7.11c-.31-.07-.21.04-.3.17-1.65,2.55-2.72,6.38-4.41,8.85-.31.45-.77.85-1.31.97l-22.18.06c-1.7-.31-2.28-1.59-1.7-3.17C1.75,9.78,4.96,5.36,6.65,1.12c.32-.49.77-.93,1.36-1.05l43.48-.07c.77.01,1.36.42,1.78,1.03l6.56,13.14c.52,1.23-.18,2.58-1.44,2.92l-22.72-.07c-.5-.15-.88-.56-1.16-.99l-4.4-8.93Z" fill="#fff"/>
      <path d="M24.42,21.44c2.95-.35,4.07-2.31,5.36-4.56.08-.14,0-.34.26-.27.12.03.88,1.8,1.16,2.19.8,1.08,2.97,2.64,4.33,2.64h18.02v12.93c0,.35-.64,1.12-.95,1.33l-22.56,7.19-22.7-7.19c-.31-.21-.95-.98-.95-1.33v-12.93h18.02Z" fill="#fff"/>
    </g>
  </g>
</svg>