<?xml version="1.0" encoding="UTF-8"?>
<svg id="b" data-name="Слой 2" xmlns="http://www.w3.org/2000/svg" viewBox="0 0 60 42.83">
  <g id="c" data-name="Слой 1">
    <g id="d" data-name="6">
      <path d="M41.66,8.58h11.85c.41,0,1.44.79,1.56,1.25l4.92,11.43-1.8,15.86c-.76,2.39-4.47,1.16-6.35,1.49-2.03,5.34-9.83,5.94-11.49-.03h-16.3c-2.07,5.28-9.9,6.06-11.49.02-.25-.21-5.53.1-6.47-.03-1.96-.27-2.51-2.99-.8-3.99,1.48-.86,5.2.75,5.41-2.23.27-3.78-5.44-1.68-7.37-2.54s-1.44-3.79.62-4.07c5.66-.4,11.95.49,17.54,0,2.77-.24,2.77-4.05,0-4.3s-5.94.26-8.72.01-2.77-3.92-.13-4.29h15.53c2.44-.49,2.43-3.8,0-4.27H6.36c-2.54-.23-2.82-3.51-.47-4.24l15.75-.06c2.47-.28,2.62-3.7.24-4.25-3.63-.3-7.64.29-11.22-.03-2.8-.25-2.73-4.08,0-4.3l30.08.07c1.43.48,1.67,1.42,1.6,2.82-.09,1.89-.56,3.8-.67,5.69ZM55.44,23.57l.22-2-3.96-8.64c-.22-.13-4.59-.12-5.14-.05-1.5.18-1.87,1.16-2.07,2.48-.24,1.52-.67,4.58-.64,6.03.03,1.23.8,2.04,2.02,2.19l9.56-.02ZM18.72,34.32c-3.1.44-2.58,5.89.42,3.78,1.52-1.06,1.56-4.06-.42-3.78ZM46.58,34.32c-3.1.44-2.58,5.89.42,3.78,1.52-1.06,1.56-4.06-.42-3.78Z" fill="#fff"/>
      <path d="M1.71,17.18c.61-.1,2.15-.1,2.78-.03,2.09.23,2.67,2.98.92,4-.78.46-3.69.45-4.46-.05-1.58-1.03-1.07-3.6.76-3.91Z" fill="#fff"/>
    </g>
  </g>
</svg>