<?xml version="1.0" encoding="UTF-8"?>
<svg id="b" data-name="Слой 2" xmlns="http://www.w3.org/2000/svg" viewBox="0 0 59.84 60">
  <g id="c" data-name="Слой 1">
    <g id="d" data-name="9">
      <path d="M48.1,0l2.48.5c13.68,4.1,11.67,23.77-2.54,25.13h-21.06c-.36-.07-.54-1.1-.74-1.49-3.2-6.31-12.46-5.32-14.18,1.47-5.29-.29-10.11-4.12-11.54-9.21-.23-.82-.31-1.66-.5-2.48.04-.72-.06-1.51,0-2.22C.54,5.6,5.74.48,11.83,0h36.26ZM46.42,7.53c-.74-.77-2.26-.42-2.48.65v8.79c.38,1.02,1.58,1.44,2.41.65.6-.56.41-1.21.52-1.94,1.2.7,2.38,3.26,3.98,1.99.49-.39.66-1.04.47-1.64-.2-.65-3.51-3.31-3.45-3.66.82-1.26,4.22-2.83,2.92-4.58s-2.97.69-3.98,1.46c.02-.57.03-1.27-.39-1.72ZM9.82,7.28c-.66.11-1.1.57-1.25,1.21l.05,8.71c.35,1.35,2.87,1.14,3.98,1.05,2.71-.22,4.54-2.54,3.43-5.18-.14-.32-.63-.86-.66-.99-.04-.18.19-.7.22-1.02.29-3.45-2.96-4.25-5.77-3.78ZM22.92,7.29c-7.58.63-5.93,12.44,1.67,10.8,6.48-1.4,5.06-11.36-1.67-10.8ZM35.67,7.29c-7.62.64-5.95,12.37,1.55,10.8,6.65-1.4,5.1-11.35-1.55-10.8Z" fill="#fff"/>
      <path d="M23.53,37.68c1.64-.65,3.04-1.19,4.76-.37.66.31,1.12.91,1.72,1.3,1.48-1.55,3.35-2.28,5.38-1.26.67.33,1.05.85,1.66,1.25,1.5-1.4,2.98-2.2,5.05-1.4,1.61.62,2.49,2.14,2.62,3.82.49,6.62-.02,13.26-6.17,17.01-3.3,2.01-7.2,2.12-10.98,1.9-7.02-.41-11.99-5.76-12.34-12.7-.29-5.55-.06-11.87.13-17.44.07-2.13-.45-3.92,1.46-5.44,2.22-1.77,5.55-.83,6.46,1.84.05.15.26.82.26.91v10.59Z" fill="#fff"/>
      <path d="M36.02,10.21c3.29-.12,3.49,5.05.09,5.05s-3.33-4.93-.09-5.05Z" fill="#fff"/>
      <path d="M23.28,10.21c3.31-.17,3.54,5.06.08,5.06-3.27,0-3.31-4.89-.08-5.06Z" fill="#fff"/>
      <path d="M13.21,14.07c.13.13.17.54.15.73-.11.7-1.37.33-1.87.42v-1.29c.4.05,1.45-.13,1.73.15Z" fill="#fff"/>
      <path d="M12.64,10.87l-1.16.13v-.82s.94.06.94.06c.22.11.28.41.22.63Z" fill="#fff"/>
    </g>
  </g>
</svg>