<?xml version="1.0" encoding="UTF-8"?>
<svg id="b" data-name="Слой 2" xmlns="http://www.w3.org/2000/svg" viewBox="0 0 57.31 60">
  <g id="c" data-name="Слой 1">
    <g id="d" data-name="8">
      <path d="M22.36,55.33c3.78-8.83-3.12-18.76-12.59-18.75V14.28c.24-3.91,3.36-7.16,7.29-7.43.98-.07,2.03.06,3.02,0-.21,4.02,2.82,7.48,6.76,8.03,4.29-.27,9.03.37,13.26,0,3.92-.34,7.16-4.11,6.89-8.04,1.75.02,3.34-.17,5.03.4,2.91.98,5.06,3.84,5.29,6.9v34.15c-.06,2.93-3.68,7.03-6.63,7.03h-28.32ZM20.53,27.97c.96.97,3.86.85,4.31-.62,1.03-3.34-4.71-3.62-4.86-.84-.02.42.25,1.16.55,1.46ZM28.83,27.97c.24.24.88.54,1.22.58h15.27c2.37-.45,2.32-3.41-.02-3.87h-15.12c-1.62.06-2.51,2.14-1.36,3.29ZM21.66,33.67c-2.2.37-2.19,3.59.1,3.85,1.7.19,3.43-.29,3.13-2.33-.22-1.5-1.99-1.73-3.24-1.52ZM28.83,36.94c.24.24.88.54,1.22.58h15.27c2.38-.37,2.31-3.44-.01-3.87h-15.12c-1.62.06-2.51,2.14-1.36,3.29Z" fill="#fff"/>
      <path d="M8.67,40.5c8.04-.83,13.68,7.86,9.46,14.81-3.78,6.22-12.99,6.27-16.73.02s.18-14.1,7.27-14.83ZM12.82,46.65c-1.07.15-3.93,3.06-4.19,3.05-.45-.58-1.11-1.48-1.88-1.6-1.51-.22-2.57,1.2-2.1,2.63.12.38,2.03,2.85,2.37,3.11.67.52,1.39.66,2.17.3,1.33-1.36,4.32-2.95,5.39-4.38s-.05-3.35-1.77-3.12Z" fill="#fff"/>
      <path d="M32.11.07c3.91-.25,8.95.04,10.48,4.31,1.29,3.6.3,6.51-3.82,6.77-3.01.19-7.58.21-10.58,0-4.04-.29-4.94-3.28-3.69-6.77S28.83.28,32.11.07Z" fill="#fff"/>
    </g>
  </g>
</svg>