<?xml version="1.0" encoding="UTF-8"?>
<svg id="b" data-name="Слой 2" xmlns="http://www.w3.org/2000/svg" viewBox="0 0 598.12 560.05">
  <g id="c" data-name="Слой 1">
    <g id="d" data-name="economy">
      <path d="M598.12,302.43v46.77c-9.11,37.29-41.18,34.53-72.52,34.48-10.83,31.25-28.73,60.18-55.04,80.61-4.49,3.48-27.09,16.21-28.06,17.55-5.21,7.18,4.59,44.24-7.12,61.87-19.9,29.96-69.97,14.85-69.97-18.51v-27.48h-142.66v32.16c0,.54-3.38,8.68-4.05,9.98-14.57,28.4-57.42,26.53-69.02-3.57-6.24-16.19-.94-35.58-3.51-52.62-40.35-19.62-72.83-55.73-85.63-99.13-7.83-26.53-7.14-55.32-5.14-82.61l-1.01-1.25c-23.21-5.24-42.7-22.61-51.2-44.71-4.56-11.85-6.44-28.67,9.93-31.61,22.17-3.98,19.69,20.47,30.73,31.87,3.02,3.11,17.04,12.97,20.45,8.78,4.31-12.6,10.91-24.32,18.71-35.06,83.42,86.37,230.65,47.52,262.47-67.31l47.83-.69c5.34-17.62,19.33-32.72,37.06-38.36,12.18-3.88,58.48-3.9,72.31-2.28,18.85,2.2,37.47,18.04,44.19,35.33,3.25,8.36,4.74,13.87-.86,21.78-4.74,8.07-61.35,26.46-61.3,29.88,16.35,16.89,28.84,36.55,37.35,58.52,27.63,1.84,59.58-6.06,72.75,25.47l3.3,10.14ZM441.03,247.86c-16.41-16.46-41.39,8.53-24.93,24.93,16.06,16.01,40.94-8.88,24.93-24.93Z" fill="#ccc"/>
      <path d="M194.3,0c92.08-.34,150.26,98.77,106.24,179.67-45.76,84.09-168.53,82.35-212.87-2.34C45.74,97.25,104.39.33,194.3,0ZM216.79,81.53c2.52,24.29,36.62,21.15,35.21-3-1.14-19.62-19.45-34.12-38.68-32.7-1.52-8.5-2.72-17.4-12.14-20.6-14.55-4.94-25.23,6.71-24.18,20.95-29.59,5.57-46.7,33.56-35.82,62.43,5.55,14.73,20.03,26.51,35.69,28.63,10.7,1.45,36.24-4.24,39.51,8.47,5.34,20.8-33.15,12.41-43.9,14.05.85-23.15-34.75-23.28-35.09-.6-.31,20.99,19.34,37.1,39.77,35.68-2.69,31.74,39.42,30.93,35.13-1.11,55-9.17,51.84-86.59-5.33-91.24-7.83-.64-18.48,1.23-25.65-.08-9.81-1.79-11.69-17.49-1.87-20.47,9.22-2.8,27.15.9,37.37-.41Z" fill="#ccc"/>
    </g>
  </g>
</svg>