<?xml version="1.0" encoding="UTF-8"?>
<svg id="b" data-name="Слой 2" xmlns="http://www.w3.org/2000/svg" viewBox="0 0 600 544.84">
  <g id="c" data-name="Слой 1">
    <g id="d" data-name="premium">
      <path d="M293.17.51c51.07-6.93,76.13,59.16,34.96,88.73l-.1,2.6c10.86,26.32,18.92,53.96,29.94,80.18,8.6,20.47,17.73,34.81,39.9,42.58,49.44,17.34,78.45-29.97,111.29-56.64-23.22-42.21,18.6-89.27,63.18-69.39,39.2,17.49,35.99,77.16-4.92,90.61-4.14,1.36-11.51.85-13.14,3.88l-43.84,219.33c-7.74,32.24-36.56,56.16-69.61,58.7l-282.84-.07c-32.44-3.31-60.75-26.68-68.37-58.63l-43.84-219.33c-1.61-3.27-6.32-2-9.97-3.12-57.89-17.86-40.6-99.73,16.16-96.02,36.57,2.39,56.56,42.74,38.93,74.03l45.45,41.9c41.24,33.58,85.76,19.73,105.74-27.84,11.01-26.23,19.07-53.87,29.94-80.18,1.02-4.51-4.92-5.84-7.34-8.54-26.62-29.64-11.31-77.39,28.48-82.79Z" fill="#ccc"/>
      <path d="M128.17,503.25l341.42-.32c25.34,3.58,25.34,38.33,0,41.91H130.47c-24.08-3.29-25.78-35.66-2.3-41.59Z" fill="#ccc"/>
    </g>
  </g>
</svg>