<?xml version="1.0" encoding="UTF-8"?>
<svg id="b" data-name="Слой 2" xmlns="http://www.w3.org/2000/svg" viewBox="0 0 600.17 599.32">
  <g id="c" data-name="Слой 1">
    <g id="d" data-name="standard">
      <path d="M385.86,413.1l21.13,25.03c-.21,10.67,2.83,20.52-3.2,29.7-24.64,37.53-90.49,93.53-127.01,121.85-10.02,7.77-17.32,13.46-30.54,6.53-45.51-38.11-91.41-74.86-129.27-120.92C47.52,390.79,4.11,280.46.47,170.33c-.46-13.97-3.06-32.29,11.4-39.57L247.15,2.12l14.64-2.12,241.41,130.53c6.47,4.44,10.21,8.93,11.11,16.98,2.35,21.01-3.43,46.31-4.02,67.58-42.33-6.43-85.5,10.5-113.75,42.1-3.68,4.12-6.07,9.49-10.67,12.74V123.44c0-6.45-12.19-17.42-19.4-16.73l-216.8-.05c-9.13.21-17.08,6.39-19.77,15.02v312.58c2.68,8.61,10.62,14.81,19.77,15.02l221.24-.97c5.5-.65,14.96-10.88,14.96-15.81v-19.4Z" fill="#ccc"/>
      <path d="M481.92,235.55c93.57-9.12,153.5,98.52,95.24,172.84-42.73,54.51-125.7,54.12-168.53,0-52.08-65.83-9.71-164.75,73.28-172.84Z" fill="#ccc"/>
      <path d="M557.12,453.24v129.11c0,3.11-5.92,10.76-8.69,12.72-22.69,16.04-39.43-17.93-55.05-29.35-16.49,9.73-31.33,43.97-54.47,30.48-3.35-1.96-10.23-10.2-10.23-13.85v-129.11c39.53,23.07,88.89,23.06,128.44,0Z" fill="#ccc"/>
      <path d="M188.84,171.26l136.03-.2c24.3,4.79,24.28,37.79,0,42.58h-134.89c-23.68-4.61-24.52-36.52-1.13-42.37Z" fill="#ccc"/>
      <path d="M188.84,256.88l136.03-.2c24.3,4.79,24.28,37.79,0,42.58h-134.89c-23.68-4.61-24.52-36.52-1.13-42.37Z" fill="#ccc"/>
      <path d="M188.84,342.51l136.03-.2c24.3,4.79,24.28,37.79,0,42.58h-134.89c-23.68-4.61-24.52-36.52-1.13-42.37Z" fill="#ccc"/>
    </g>
  </g>
</svg>